<?xml version="1.0" encoding="utf-8"?>
<!-- Generator: Adobe Illustrator 22.1.0, SVG Export Plug-In . SVG Version: 6.00 Build 0)  -->
<svg version="1.1" id="Layer_1" xmlns="http://www.w3.org/2000/svg" xmlns:xlink="http://www.w3.org/1999/xlink" x="0px" y="0px"
	 viewBox="0 0 520.7 290" style="enable-background:new 0 0 520.7 290;" xml:space="preserve">
<style type="text/css">
	.st0{fill:#4D4D4D;}
	.st1{display:none;}
	.st2{display:inline;}
	.st3{fill:#0076FF;}
	.st4{display:none;fill:#FFCD00;}
	.st5{display:none;fill:#91BE4A;}
	.st6{display:none;fill:#FD4A46;}
	.st7{fill:#7DB721;}
	.st8{fill:#FAC026;}
	.st9{fill:#FD4A46;}
	.st10{fill:#FFF;}
	.st11{enable-background:new    ;}
	.st12{fill:#F2F2F2;}
</style>
<g id="Layer_1_1_">
</g>
<g id="left_x5F_hand_1_">
	<g>
		<g>
			<g>
				<g>
					<path class="st0" d="M126.8,6.4c0.5,0,1,0,1.5,0.1c11.2,0.8,19.6,10.5,18.8,21.7L142,100l2.5-0.1l0.1-0.5v-0.1l0.2-1.1
						L154.9,31c1.5-10,10.2-17.2,20-17.2c1,0,2.1,0.1,3.1,0.2c11.1,1.7,18.7,12.1,17,23.1l-10,65.7l-0.7,4.4l-0.2,1.1
						c0,0-12.2,71.6-0.5,71.6c0.5,0,1-0.1,1.5-0.4c0.5-0.8,10.8-10.2,24.4-14.2c3.7-1.1,7.7-1.8,11.8-1.8c2.5,0,5,0.3,7.5,0.8
						c5.2,1.1,10.4,3.6,15.4,8.1c4.6,4,8,18.7,3.4,24.3c-0.6,0.7-1.5,1.2-2.5,1.2c-0.1,0-0.2,0-0.3,0c-18.7,0.8-54.6,20.4-54.6,20.8
						c0,0.1-21.9,19.1-46.1,31.4v55H52v-58.5C7.3,221.3,13.9,157,14.5,154.2c-0.1-5.4,0.3-12.8,0.8-19.3l-2.1-29l-0.1-1.1L8.9,47.4
						C8,36.2,16.5,26.5,27.6,25.7c0.5,0,1-0.1,1.5-0.1c10.5,0,19.4,8.1,20.2,18.8l4.4,59.4v0.3v0.1l3.7-0.2V32.7
						c0-11,8.6-20.4,19.6-20.8c0.2,0,0.5,0,0.7,0C88.9,11.9,98,21,98,32.2v69.9l3.1-0.2l0.1-1.2l0.2-3l5.2-72.6
						C107.3,14.5,116.2,6.4,126.8,6.4 M126.8,3c-12.4,0-22.7,9.7-23.6,22l-1.8,24.6V32.2c0-13.1-10.6-23.7-23.7-23.7
						c-0.3,0-0.6,0-0.9,0c-6.2,0.2-12,2.9-16.3,7.5C56.4,20.5,54,26.4,54,32.7v29.5l-1.3-17.9c-0.9-12.3-11.3-22-23.6-22
						c-0.6,0-1.2,0-1.8,0.1c-6.3,0.5-12.1,3.3-16.2,8.1c-4,4.7-6.1,10.8-5.6,17.2L9.7,105l0.1,1.1l2.1,28.8
						c-0.6,8.3-0.8,14.5-0.8,19c-0.5,3.4-1.9,19.7,1.8,38.7c5,25.5,17.4,44.8,35.7,55.8V305v3.4H52h92.1h3.4V305v-52.9
						c12.1-6.3,23.3-14.1,30.8-19.6c4.5-3.4,8.1-6.2,10.3-8c1.9-1.5,3-2.5,3.8-3.2c3.1-1.9,35.9-19.3,52.7-20h0.1h0.1h0.1
						c1.9-0.1,3.7-1,4.9-2.4c3.8-4.5,3.2-11.6,2.5-15.5c-0.8-4.6-2.9-10.5-6.2-13.5c-5-4.5-10.7-7.5-16.9-8.9
						c-2.6-0.6-5.4-0.9-8.2-0.9c-4.1,0-8.4,0.7-12.8,2c-11.9,3.5-21.3,10.8-24.8,14.1c-0.9-1.6-3.1-8.4-0.6-34.8
						c1.6-16.5,4.3-32.4,4.3-32.6l0,0l0,0l0.2-1.1l0.7-4.3l10.1-65.6c1-6.3-0.6-12.5-4.3-17.6s-9.2-8.4-15.5-9.4
						c-1.2-0.2-2.4-0.3-3.6-0.3c-11.6,0-21.6,8.6-23.4,20.1l-2.5,16.2l1.3-18.4c0.5-6.3-1.6-12.4-5.7-17.2
						c-4.1-4.8-9.9-7.7-16.2-8.1C127.9,3,127.3,3,126.8,3L126.8,3z"/>
				</g>
			</g>
		</g>
		<g class="st1">
			<g class="st2">
				<g>
					<g>
						<path class="st3" d="M195.1,37.2L185,102.8l-0.7,4.4c-2.3,8.7-10.2,15.1-19.7,15.1c-11.2,0-20.4-9.1-20.4-20.3
							c0-0.9,0.1-1.8,0.2-2.6l0.2-1.1L154.9,31c1.7-11.1,12.1-18.7,23.2-17C189.2,15.7,196.8,26.1,195.1,37.2z"/>
					</g>
				</g>
			</g>
		</g>
		<path class="st4" d="M147,28.1l-5.1,71.8c0,0.3,0,0.5,0,0.8c0,11.2-9.1,20.3-20.4,20.3c-11.2,0-20.4-9.1-20.4-20.3l0.2-3l5.2-72.6
			c0.8-11.2,10.5-19.6,21.7-18.8C139.4,7.2,147.8,16.9,147,28.1z"/>
		<path class="st5" d="M98,32.2v69.7c0,11.2-9.1,20.3-20.4,20.3c-10.5,0-19.1-7.9-20.2-18.1V32.2c0-11.2,9.1-20.3,20.3-20.3
			C88.9,11.9,98,21,98,32.2z"/>
		<path class="st6" d="M53.7,104.2c-0.1,11-9.3,20-20.3,20c-10.4,0-19.2-8-20.2-18.3l-0.1-1.1L8.9,47.4C8,36.2,16.5,26.5,27.6,25.7
			c11.2-0.8,20.9,7.6,21.7,18.8l4.4,59.4L53.7,104.2z"/>
		<g>
			<circle class="st3" cx="29.2" cy="46.4" r="15.8"/>
			<circle class="st7" cx="77.5" cy="33" r="15.8"/>
			<circle class="st8" cx="126.1" cy="27.6" r="15.8"/>
			<circle class="st9" cx="175.4" cy="34.8" r="15.8"/>
		</g>
	</g>
	<g id="Layer_4">
		<circle class="st10" cx="100.1" cy="169.8" r="50.2"/>
		<g class="st11">
			<path class="st12" d="M88.1,144.7h14.4v31.6h19.3v11.2H88.1V144.7z"/>
		</g>
	</g>
</g>
<g id="right_x5F_hand">
	<g>
		<g>
			<g>
				<g>
					<g>
						<path class="st0" d="M394.2,6.4c10.5,0,19.5,8.2,20.2,18.9l5.2,72.6l0.2,3l0.1,1.2l3.1,0.2V32.2c0-11.2,9.1-20.3,20.3-20.3
							c0.2,0,0.5,0,0.7,0c11,0.4,19.6,9.8,19.6,20.8v71.4l3.7,0.2v-0.1v-0.3l4.4-59.4c0.8-10.7,9.7-18.8,20.2-18.8
							c0.5,0,1,0,1.5,0.1c11.2,0.8,19.6,10.6,18.8,21.7l-4.2,57.4l-0.1,1.1l-2.1,29c0.4,6.4,0.8,13.8,0.8,19.3
							c0.7,2.8,7.2,67.1-37.5,92.3V305H377v-55c-24.2-12.3-46.1-31.2-46.1-31.4c-0.1-0.3-36-20-54.6-20.8h-0.1
							c-1.1-0.1-2.1-0.5-2.7-1.3c-4.5-5.7-1.1-20.2,3.5-24.2c5-4.5,10.2-7,15.4-8.1c2.5-0.6,5-0.8,7.5-0.8c4.1,0,8.1,0.7,11.8,1.8
							c13.6,4,24,13.5,24.4,14.2c0.6,0.2,1.1,0.4,1.5,0.4c11.7,0-0.5-71.6-0.5-71.6l-0.2-1.1l-0.7-4.4l-10.1-65.6
							c-1.7-11.1,5.9-21.4,17-23.1c1-0.2,2.1-0.2,3.1-0.2c9.9,0,18.5,7.2,20,17.2l10.3,67.1l0.2,1.1v0.1l0.1,0.5l2.5,0.1L374,28.1
							c-0.8-11.2,7.6-20.9,18.8-21.7C393.3,6.4,393.8,6.4,394.2,6.4 M394.2,3L394.2,3c-0.6,0-1.1,0-1.7,0.1
							c-6.3,0.4-12.1,3.3-16.2,8.1s-6.2,10.9-5.7,17.2l1.3,18.4l-2.5-16.2C367.6,19,357.6,10.4,346,10.4c-1.2,0-2.4,0.1-3.6,0.3
							c-6.3,1-11.8,4.3-15.5,9.4s-5.3,11.4-4.3,17.6l10.1,65.6l0.7,4.4l0.2,1.1l0,0l0,0c0,0.2,2.7,16,4.3,32.6
							c2.6,26.4,0.3,33.2-0.6,34.8c-3.6-3.3-13-10.6-24.9-14.1c-4.3-1.3-8.6-2-12.8-2c-2.8,0-5.6,0.3-8.3,0.9
							c-6.2,1.4-11.9,4.4-16.9,8.9c-5.6,4.9-9.7,21.4-3.8,28.8c1.2,1.5,3.1,2.5,5.2,2.6h0.1h0.1c16.8,0.7,49.5,18.1,52.7,20
							c0.7,0.7,1.9,1.7,3.8,3.2c2.2,1.8,5.8,4.6,10.3,8c7.5,5.5,18.7,13.3,30.8,19.6V305v3.4h3.4h92h3.4V305v-56.6
							c18.3-11,30.6-30.3,35.7-55.8c3.7-19,2.3-35.2,1.8-38.7c0-4.5-0.2-10.7-0.8-19l2.1-28.8l0.1-1.1l4.2-57.4
							c0.5-6.3-1.6-12.4-5.7-17.2c-4.1-4.8-9.9-7.7-16.2-8.1c-0.6,0-1.2-0.1-1.7-0.1c-12.3,0-22.7,9.6-23.6,22L467,62.1V32.7
							c0-6.2-2.3-12.1-6.6-16.7c-4.3-4.6-10.1-7.3-16.3-7.5c-0.3,0-0.6,0-0.9,0c-6.3,0-12.3,2.5-16.7,6.9
							c-4.5,4.5-6.9,10.4-6.9,16.8v17.5L417.8,25C417,12.7,406.6,3,394.2,3L394.2,3L394.2,3z"/>
					</g>
				</g>
			</g>
		</g>
		<g class="st1">
			<g class="st2">
				<g>
					<g>
						<path class="st3" d="M325.9,37.2l10.1,65.6l0.7,4.4c2.3,8.7,10.2,15.1,19.7,15.1c11.2,0,20.4-9.1,20.4-20.3
							c0-0.9-0.1-1.8-0.2-2.6l-0.2-1.1L366.1,31c-1.7-11.1-12.1-18.7-23.2-17S324.2,26.1,325.9,37.2z"/>
					</g>
				</g>
			</g>
		</g>
		<path class="st4" d="M374,28.1l5.1,71.8c0,0.3,0,0.5,0,0.8c0,11.2,9.1,20.3,20.4,20.3c11.2,0,20.4-9.1,20.4-20.3l-0.2-3l-5.2-72.6
			C413.7,14,403.9,5.6,392.8,6.4C381.6,7.2,373.2,16.9,374,28.1z"/>
		<path class="st5" d="M423,32.2v69.7c0,11.2,9.1,20.3,20.4,20.3c10.5,0,19.1-7.9,20.2-18.1V32.2c0-11.2-9.1-20.3-20.3-20.3
			C432.1,11.9,423,21,423,32.2z"/>
		<path class="st6" d="M467.3,104.2c0.1,11,9.3,20,20.3,20c10.4,0,19.2-8,20.2-18.3l0.1-1.1l4.2-57.4c0.8-11.2-7.6-20.9-18.8-21.7
			c-11.2-0.8-20.9,7.6-21.7,18.8l-4.4,59.4L467.3,104.2z"/>
		<g>
			<circle class="st3" cx="491.8" cy="46.4" r="15.8"/>
			<circle class="st7" cx="443.5" cy="33" r="15.8"/>
			<circle class="st8" cx="394.9" cy="27.6" r="15.8"/>
			<circle class="st9" cx="345.6" cy="34.8" r="15.8"/>
		</g>
	</g>
	<g id="right_x5F_circle">
		<circle id="circle" class="st10" cx="420.9" cy="169.8" r="50.2"/>
		<g class="st11">
			<path class="st12" d="M421.3,176.7h-3.9v10.8h-14.4v-42.8h20.6c4,0,7.4,0.7,10.3,2c2.9,1.3,5.2,3.2,6.8,5.6s2.4,5.3,2.4,8.6
				c0,3.1-0.7,5.7-2.1,8c-1.4,2.3-3.4,4.1-6,5.4l9,13.2h-15.4L421.3,176.7z M427,157.1c-1-0.9-2.4-1.3-4.4-1.3h-5.3v10h5.3
				c2,0,3.4-0.4,4.4-1.3c1-0.9,1.5-2.1,1.5-3.7S428,158,427,157.1z"/>
		</g>
	</g>
</g>
</svg>
